<svg width="24" height="24" viewBox="0 0 24 24" fill="none" xmlns="http://www.w3.org/2000/svg">
<path fill-rule="evenodd" clip-rule="evenodd" d="M1.64551 19.3581C0.736715 19.3581 0 18.6213 0 17.7125V5.64551C0 4.73671 0.736715 4 1.64551 4H7.67903C13.164 4 13.164 11.1305 9.87304 11.1305C13.164 11.1305 14.2611 19.3581 7.67903 19.3581H1.64551ZM3.83951 10.582C3.53659 10.582 3.29101 10.3364 3.29101 10.0335V6.74251C3.29101 6.43958 3.53659 6.19401 3.83951 6.19401H6.58202C6.58202 6.19401 8.77603 6.19401 8.77603 8.38802C8.77603 10.582 6.58202 10.582 6.58202 10.582H3.83951ZM3.83951 12.776C3.53659 12.776 3.29101 13.0216 3.29101 13.3245V16.6155C3.29101 16.9184 3.53659 17.164 3.83951 17.164H7.67903C7.67903 17.164 9.32453 17.164 9.32453 14.97C9.32453 12.776 7.67903 12.776 7.67903 12.776H3.83951Z" fill="white"/>
<path fill-rule="evenodd" clip-rule="evenodd" d="M22.4875 13.8768C23.3968 13.8768 24.1573 13.127 23.9719 12.2369C22.6054 5.67721 13.0684 6.28278 13.164 13.8768C13.237 19.6611 21.3196 21.516 23.6994 16.2753C24.0776 15.4427 23.2287 14.9698 22.5294 14.9698C21.9078 14.9698 21.4259 15.543 21.0288 16.0212C19.8856 17.398 16.4142 17.298 15.9558 14.4372C15.9071 14.1336 16.1593 13.8768 16.4667 13.8768H22.4875ZM16.2558 11.6787C16.0941 11.6787 15.9897 11.5094 16.076 11.3727C17.2384 9.53158 20.0328 9.55143 21.2158 11.3707C21.3046 11.5073 21.2004 11.6787 21.0375 11.6787H16.2558Z" fill="white"/>
<path d="M16.455 5.09717C15.8492 5.09717 15.358 5.58832 15.358 6.19417C15.358 6.80003 15.8492 7.29118 16.455 7.29118H20.8431C21.4489 7.29118 21.9401 6.80003 21.9401 6.19417C21.9401 5.58832 21.4489 5.09717 20.8431 5.09717H16.455Z" fill="white"/>
</svg>
