<svg width="316" height="144" viewBox="0 0 316 144" fill="none" xmlns="http://www.w3.org/2000/svg">
<path d="M0.970703 163V-18.8182H79.8059C93.6554 -18.8182 105.285 -16.9538 114.696 -13.2251C124.166 -9.49645 131.297 -4.22894 136.091 2.57741C140.945 9.38375 143.371 17.4034 143.371 26.6364C143.371 33.3243 141.892 39.4204 138.932 44.9247C136.032 50.429 131.948 55.0454 126.681 58.7741C121.413 62.4437 115.258 64.9886 108.215 66.4091V68.1847C116.028 68.4806 123.13 70.4633 129.522 74.1328C135.914 77.7431 141.004 82.7443 144.792 89.1364C148.58 95.4692 150.474 102.927 150.474 111.509C150.474 121.452 147.869 130.3 142.661 138.053C137.512 145.807 130.173 151.903 120.644 156.342C111.115 160.781 99.7515 163 86.5531 163H0.970703ZM50.3315 123.582H73.4139C81.6999 123.582 87.9144 122.044 92.0574 118.966C96.2003 115.829 98.2718 111.213 98.2718 105.116C98.2718 100.855 97.2953 97.2448 95.3422 94.2855C93.389 91.3262 90.6073 89.0772 86.997 87.5384C83.4458 85.9995 79.1549 85.2301 74.1241 85.2301H50.3315V123.582ZM50.3315 54.6903H70.573C74.8935 54.6903 78.711 54.0097 82.0254 52.6484C85.3398 51.2872 87.9144 49.334 89.7491 46.7891C91.6431 44.1849 92.59 41.0185 92.59 37.2898C92.59 31.6671 90.5777 27.3762 86.5531 24.4169C82.5285 21.3984 77.4385 19.8892 71.2832 19.8892H50.3315V54.6903ZM265.974 38C265.501 32.0814 263.281 27.465 259.316 24.1506C255.41 20.8362 249.461 19.179 241.471 19.179C236.381 19.179 232.209 19.8004 228.954 21.0433C225.758 22.227 223.39 23.8546 221.851 25.9261C220.313 27.9976 219.514 30.3651 219.454 33.0284C219.336 35.2183 219.721 37.201 220.608 38.9766C221.555 40.6929 223.035 42.2614 225.047 43.6818C227.06 45.0431 229.634 46.286 232.771 47.4105C235.908 48.535 239.637 49.5412 243.957 50.429L258.872 53.625C268.934 55.7557 277.545 58.567 284.706 62.0589C291.868 65.5509 297.727 69.6643 302.285 74.3991C306.842 79.0748 310.186 84.3423 312.317 90.2017C314.506 96.0611 315.631 102.453 315.69 109.378C315.631 121.333 312.642 131.454 306.724 139.74C300.805 148.026 292.341 154.329 281.333 158.65C270.384 162.97 257.215 165.131 241.827 165.131C226.024 165.131 212.234 162.793 200.456 158.117C188.737 153.442 179.622 146.25 173.112 136.544C166.661 126.778 163.406 114.29 163.346 99.0795H210.221C210.517 104.643 211.908 109.319 214.394 113.107C216.88 116.894 220.372 119.765 224.87 121.718C229.427 123.671 234.843 124.648 241.116 124.648C246.384 124.648 250.793 123.997 254.344 122.695C257.895 121.393 260.588 119.587 262.423 117.279C264.258 114.971 265.205 112.337 265.264 109.378C265.205 106.596 264.287 104.17 262.512 102.098C260.796 99.9673 257.955 98.0734 253.989 96.4162C250.024 94.6998 244.667 93.1018 237.92 91.6222L219.809 87.7159C203.711 84.224 191.016 78.3942 181.724 70.2266C172.491 61.9998 167.904 50.7841 167.963 36.5795C167.904 25.0383 170.981 14.9472 177.196 6.30611C183.47 -2.39418 192.14 -9.17094 203.208 -14.0242C214.335 -18.8774 227.089 -21.304 241.471 -21.304C256.149 -21.304 268.845 -18.8478 279.557 -13.9354C290.27 -9.02297 298.526 -2.09825 304.327 6.83878C310.186 15.7166 313.145 26.1037 313.204 38H265.974Z" fill="#1C1C1C"/>
</svg>
