<svg width="24" height="24" viewBox="0 0 24 24" fill="none" xmlns="http://www.w3.org/2000/svg">
<path fill-rule="evenodd" clip-rule="evenodd" d="M7.04359 0.147275C5.09013 0.235415 3.39698 0.713011 2.02979 2.07442C0.657834 3.44299 0.18617 5.14285 0.0978101 7.07599C0.0428837 8.28256 -0.278297 17.398 0.653059 19.7885C1.28113 21.4012 2.51813 22.6412 4.14561 23.2713C4.90503 23.5667 5.77193 23.7666 7.04359 23.825C17.6766 24.3062 21.6181 24.0442 23.2802 19.7885C23.5751 19.031 23.7781 18.1648 23.8342 16.8963C24.3202 6.23605 23.7555 3.92538 21.9023 2.07442C20.4324 0.608191 18.7034 -0.389905 7.04359 0.147275ZM7.14147 21.6811C5.97728 21.6286 5.34564 21.4347 4.92414 21.2715C3.86383 20.8594 3.0674 20.0662 2.65784 19.0121C1.94858 17.1957 2.18382 8.56863 2.2471 7.17267C2.30919 5.80529 2.58621 4.55561 3.551 3.59083C4.74504 2.39973 6.28773 1.81599 16.7918 2.29005C18.1625 2.35198 19.4151 2.62843 20.3823 3.59083C21.5763 4.78191 22.1686 6.33648 21.6862 16.8002C21.6336 17.9615 21.439 18.5917 21.2754 19.0121C20.1948 21.7814 17.7088 22.1658 7.14147 21.6811ZM16.9076 5.62755C16.9076 6.41606 17.5488 7.05724 18.3405 7.05724C19.1321 7.05724 19.7745 6.41606 19.7745 5.62755C19.7745 4.83905 19.1321 4.19845 18.3405 4.19845C17.5488 4.19845 16.9076 4.83905 16.9076 5.62755ZM5.8352 11.9856C5.8352 15.3635 8.58032 18.1022 11.9666 18.1022C15.3529 18.1022 18.0981 15.3635 18.0981 11.9856C18.0981 8.60763 15.3529 5.87071 11.9666 5.87071C8.58032 5.87071 5.8352 8.60763 5.8352 11.9856ZM7.98687 11.9856C7.98687 9.79396 9.7684 8.01583 11.9666 8.01583C14.1649 8.01583 15.9464 9.79396 15.9464 11.9856C15.9464 14.1784 14.1649 15.957 11.9666 15.957C9.7684 15.957 7.98687 14.1784 7.98687 11.9856Z" fill="white"/>
</svg>
