<svg width="24" height="24" viewBox="0 0 24 24" fill="none" xmlns="http://www.w3.org/2000/svg">
<path d="M23.0261 7.25732C22.0995 5.1081 20.5691 3.28856 18.6457 2.00713C16.724 0.72576 14.403 -0.016412 11.9228 0.000275514C10.2699 0.0106349 8.69022 0.356619 7.25772 0.973869C5.1077 1.89974 3.28853 3.43054 2.00791 5.35345C0.726484 7.27523 -0.0156405 9.59624 0.000250094 12.0771C0.0114063 13.7296 0.357438 15.3094 0.974641 16.7423C1.89972 18.8908 3.43094 20.7111 5.35422 21.9921C7.276 23.2735 9.59702 24.0157 12.0771 23.9989C13.73 23.9886 15.3097 23.6422 16.7423 23.0257C18.8923 22.0995 20.7115 20.5683 21.9921 18.6457C23.2735 16.7241 24.0164 14.4026 23.9997 11.9228C23.9886 10.2692 23.6426 8.68945 23.0261 7.25732ZM6.82098 4.42284C8.28137 3.42379 10.0353 2.83635 11.9403 2.82323C13.2114 2.81526 14.4165 3.06426 15.5165 3.52082C16.654 3.9929 17.6777 4.68932 18.5312 5.55435L5.38759 5.63906C5.82273 5.18648 6.30316 4.77838 6.82098 4.42284ZM3.52155 8.48306C3.57963 8.34267 3.64248 8.20626 3.70689 8.06985L20.2437 7.96321C20.6629 8.81868 20.9517 9.74934 21.0877 10.7309L2.89558 10.8482C2.99898 10.0198 3.21217 9.2272 3.52155 8.48306ZM17.1782 19.576C15.7186 20.5755 13.9646 21.1625 12.0588 21.176C10.7878 21.1836 9.58352 20.9346 8.48266 20.4784C7.34598 20.006 6.32228 19.31 5.46878 18.4445L18.6115 18.3602C18.1772 18.8124 17.6968 19.2209 17.1782 19.576ZM20.4792 15.5166C20.4211 15.6562 20.3575 15.7934 20.2931 15.9294L3.757 16.036C3.33625 15.1801 3.0475 14.2503 2.91227 13.268L21.1052 13.1511C21.001 13.9799 20.7878 14.7721 20.4792 15.5166Z" fill="white"/>
</svg>
