<svg width="25" height="22" viewBox="0 0 25 22" fill="none" xmlns="http://www.w3.org/2000/svg">
<path fill-rule="evenodd" clip-rule="evenodd" d="M24.0092 2.59378C24.3554 0.922455 22.6978 -0.466446 21.0909 0.148443L1.393 7.68561C-0.401538 8.37227 -0.481498 10.8575 1.26525 11.6558L5.55489 13.6166L7.59553 20.69C7.70152 21.0574 7.99592 21.3419 8.36941 21.4378C8.7429 21.5335 9.13973 21.4265 9.41255 21.1563L12.5559 18.0432L16.9592 21.3138C18.2374 22.2632 20.0784 21.5717 20.3994 20.0217L24.0092 2.59378ZM2.1779 9.69752L21.8758 2.16036L18.266 19.5884L13.1072 15.7565C12.6737 15.4345 12.067 15.4772 11.6838 15.8567L10.3375 17.19L10.742 14.9867L18.6684 7.13671C19.0542 6.75468 19.095 6.1489 18.7638 5.71954C18.4327 5.29018 17.8319 5.16975 17.3582 5.4378L6.41159 11.6327L2.1779 9.69752ZM7.7463 13.3615L8.40661 15.6504L8.66012 14.2694C8.69975 14.0536 8.80488 13.8549 8.9615 13.6998L11.3788 11.3059L7.7463 13.3615Z" fill="white"/>
</svg>
