<svg width="120" height="31" viewBox="0 0 120 31" fill="none" xmlns="http://www.w3.org/2000/svg">
  <path
    d="M22.7505 24.92L8.99047 18.04V14.84L22.7505 7.96V10.744L12.8305 15.608C12.4251 15.8 12.0411 15.9707 11.6785 16.12C11.3371 16.248 11.0811 16.3333 10.9105 16.376C11.1025 16.4187 11.3798 16.5147 11.7425 16.664C12.1051 16.792 12.4678 16.952 12.8305 17.144L22.7505 22.04V24.92ZM30.994 27V3.64H37.618C39.7513 3.64 41.4153 4.17333 42.61 5.24C43.826 6.30667 44.434 7.78933 44.434 9.688C44.434 10.8827 44.05 11.96 43.282 12.92C42.5353 13.88 41.554 14.4773 40.338 14.712V14.808C41.2553 14.9147 42.0553 15.2347 42.738 15.768C43.442 16.3013 43.986 16.984 44.37 17.816C44.7753 18.6267 44.978 19.5227 44.978 20.504C44.978 22.5093 44.3593 24.0987 43.122 25.272C41.906 26.424 40.2313 27 38.098 27H30.994ZM33.81 13.592H37.586C38.8233 13.592 39.794 13.2613 40.498 12.6C41.2233 11.9387 41.586 11.0427 41.586 9.912C41.586 8.78133 41.234 7.88533 40.53 7.224C39.826 6.56267 38.8553 6.232 37.618 6.232H33.81V13.592ZM33.81 24.408H37.778C39.122 24.408 40.178 24.056 40.946 23.352C41.7353 22.6267 42.13 21.6453 42.13 20.408C42.13 19.128 41.7353 18.0933 40.946 17.304C40.178 16.4933 39.122 16.088 37.778 16.088H33.81V24.408ZM59.4935 27.32C57.2321 27.32 55.4295 26.7227 54.0855 25.528C52.7415 24.3333 52.0695 22.6907 52.0695 20.6H54.9495C54.9495 21.9013 55.3655 22.9253 56.1975 23.672C57.0295 24.3973 58.1281 24.76 59.4935 24.76C60.8161 24.76 61.8721 24.376 62.6615 23.608C63.4508 22.84 63.8455 21.8373 63.8455 20.6C63.8455 19.6613 63.5895 18.8507 63.0775 18.168C62.5868 17.464 61.8721 16.984 60.9335 16.728L57.3815 15.736C55.9095 15.3093 54.7468 14.552 53.8935 13.464C53.0615 12.3547 52.6455 11.0533 52.6455 9.56C52.6455 8.32267 52.9228 7.23467 53.4775 6.296C54.0321 5.35733 54.8108 4.632 55.8135 4.12C56.8161 3.58667 57.9681 3.32 59.2695 3.32C60.5921 3.32 61.7548 3.58667 62.7575 4.12C63.7815 4.632 64.5815 5.35733 65.1575 6.296C65.7335 7.21333 66.0215 8.28 66.0215 9.496H63.1415C63.1415 8.42933 62.7788 7.56533 62.0535 6.904C61.3281 6.22133 60.4001 5.88 59.2695 5.88C58.1388 5.88 57.2215 6.22133 56.5175 6.904C55.8135 7.56533 55.4615 8.42933 55.4615 9.496C55.4615 10.3493 55.6855 11.0853 56.1335 11.704C56.6028 12.3013 57.2535 12.7173 58.0855 12.952L61.7335 13.976C63.2908 14.4027 64.4961 15.2133 65.3495 16.408C66.2241 17.5813 66.6615 18.9787 66.6615 20.6C66.6615 22.648 66.0108 24.28 64.7095 25.496C63.4081 26.712 61.6695 27.32 59.4935 27.32ZM73.613 30.08L83.553 3.76H86.213L76.273 30.08H73.613ZM93.262 24.92V22.136L103.182 17.272C103.587 17.08 103.961 16.92 104.302 16.792C104.665 16.6427 104.931 16.5467 105.102 16.504C104.91 16.4613 104.633 16.3653 104.27 16.216C103.907 16.0667 103.545 15.9067 103.182 15.736L93.262 10.84V7.96L107.022 14.84V18.04L93.262 24.92Z"
    fill="white" />
</svg>