<svg
              width="98"
              height="34"
              viewBox="0 0 98 28"
              fill="none"
              xmlns="http://www.w3.org/2000/svg"
            >
              <path
                d="M13.7556 25.6009L0 18.4021V15.0538L13.7556 7.85501V10.768L3.83879 15.8574C3.43353 16.0583 3.04965 16.2369 2.68717 16.3931C2.34588 16.5271 2.08996 16.6163 1.91941 16.661C2.11135 16.7057 2.38856 16.8061 2.75115 16.9623C3.11363 17.0963 3.47621 17.2637 3.83879 17.4646L13.7556 22.5874V25.6009ZM21.9965 27.7773V3.33483H28.6183C30.7509 3.33483 32.4144 3.89287 33.6087 5.00897C34.8243 6.12507 35.4321 7.67643 35.4321 9.66308C35.4321 10.9131 35.0483 12.0404 34.2805 13.0448C33.534 14.0493 32.5531 14.6743 31.3374 14.9199V15.0203C32.2545 15.132 33.0542 15.4668 33.7367 16.0248C34.4404 16.5828 34.9843 17.2972 35.3681 18.1677C35.7733 19.016 35.976 19.9535 35.976 20.9803C35.976 23.0785 35.3575 24.7415 34.1206 25.9692C32.9049 27.1746 31.2308 27.7773 29.0982 27.7773H21.9965ZM24.8115 13.748H28.5863C29.8232 13.748 30.7936 13.402 31.4974 12.71C32.2225 12.0181 32.585 11.0806 32.585 9.89746C32.585 8.7144 32.2332 7.77688 31.5294 7.0849C30.8256 6.39293 29.8552 6.04694 28.6183 6.04694H24.8115V13.748ZM24.8115 25.0652H28.7783C30.1218 25.0652 31.1775 24.6969 31.9452 23.9602C32.7343 23.2013 33.1289 22.1745 33.1289 20.8798C33.1289 19.5405 32.7343 18.4579 31.9452 17.632C31.1775 16.7837 30.1218 16.3596 28.7783 16.3596H24.8115V25.0652ZM50.4868 28.1121C48.2261 28.1121 46.4241 27.4871 45.0805 26.2371C43.737 24.987 43.0652 23.2683 43.0652 21.0807H45.9442C45.9442 22.4423 46.3601 23.5138 47.1918 24.2951C48.0236 25.054 49.1218 25.4335 50.4868 25.4335C51.809 25.4335 52.8646 25.0317 53.6538 24.2281C54.4428 23.4245 54.8374 22.3754 54.8374 21.0807C54.8374 20.0985 54.5815 19.2504 54.0696 18.536C53.5791 17.7994 52.8646 17.2972 51.9263 17.0293L48.3755 15.9913C46.9039 15.5449 45.7416 14.7525 44.8886 13.6141C44.0569 12.4533 43.641 11.0916 43.641 9.52915C43.641 8.23448 43.9182 7.09607 44.4727 6.1139C45.0271 5.13174 45.8056 4.3728 46.808 3.83707C47.8102 3.27903 48.9619 3 50.2629 3C51.585 3 52.7474 3.27903 53.7497 3.83707C54.7734 4.3728 55.5732 5.13174 56.149 6.1139C56.7248 7.07374 57.0127 8.18984 57.0127 9.46218H54.1336C54.1336 8.34609 53.771 7.44205 53.046 6.75007C52.3208 6.03577 51.3931 5.67863 50.2629 5.67863C49.1325 5.67863 48.2155 6.03577 47.5117 6.75007C46.808 7.44205 46.4561 8.34609 46.4561 9.46218C46.4561 10.355 46.68 11.1251 47.1279 11.7725C47.597 12.3975 48.2475 12.8328 49.0792 13.0783L52.7261 14.1498C54.2829 14.5962 55.4878 15.4444 56.3409 16.6945C57.2152 17.9221 57.6525 19.3843 57.6525 21.0807C57.6525 23.2236 57.002 24.9312 55.7011 26.2036C54.4001 27.4759 52.6621 28.1121 50.4868 28.1121ZM64.6017 31L74.5386 3.46039H77.1977L67.2609 31H64.6017ZM84.2444 25.6009V22.6879L94.1612 17.5985C94.5661 17.3976 94.94 17.2302 95.2809 17.0963C95.6438 16.94 95.9097 16.8396 96.0806 16.7949C95.8887 16.7502 95.6118 16.6498 95.2489 16.4936C94.886 16.3374 94.5241 16.1699 94.1612 15.9913L84.2444 10.8685V7.85501L98 15.0538V18.4021L84.2444 25.6009Z"
                fill="white"
              />
            </svg>