<svg width="66" height="66" viewBox="0 0 66 66" fill="none" xmlns="http://www.w3.org/2000/svg">
<circle cx="33" cy="33" r="31.5" fill="#161616" stroke="white" stroke-width="3"/>
<mask id="path-2-inside-1_274_97" fill="white">
<path d="M52.9196 50.5881L45.9842 30.6239C45.4971 29.3104 44.4069 28.4985 43.1543 28.4985C41.9017 28.4985 40.8347 29.3104 40.3012 30.6716L33.3889 50.5881C33.0642 51.5194 33.5281 52.5463 34.4327 52.8806C35.3374 53.2149 36.3348 52.7373 36.6595 51.806L38.0976 47.6746H48.1877L49.6259 51.806C49.881 52.5463 50.5537 53 51.2728 53C51.4583 53 51.6671 52.9761 51.8526 52.9045C52.7573 52.5701 53.2212 51.5433 52.8965 50.6119L52.9196 50.5881ZM39.3734 44.0687L43.1775 33.1075L46.9816 44.0687H39.3734ZM33.4585 23.0776C28.2163 31.603 23.4844 36.7612 17.7319 40.2C17.4536 40.3672 17.152 40.4388 16.8737 40.4388C16.2706 40.4388 15.6907 40.1284 15.366 39.5552C14.8788 38.6955 15.1572 37.597 15.9922 37.1194C20.8633 34.206 24.853 30.0269 29.3297 23.1015H14.7397C13.7887 23.1015 13 22.2896 13 21.3104C13 20.3313 13.7887 19.5194 14.7397 19.5194H23.438V14.791C23.438 13.8119 24.2267 13 25.1777 13C26.1287 13 26.9174 13.8119 26.9174 14.791V19.5194H35.6157C36.5667 19.5194 37.3554 20.3313 37.3554 21.3104C37.3554 22.2896 36.5667 23.1015 35.6157 23.1015H33.4353L33.4585 23.0776ZM33.5513 40.4388C33.2498 40.4388 32.9482 40.3672 32.6699 40.2C31.1622 39.2925 29.7008 38.2896 28.3323 37.2388C27.5668 36.6418 27.4045 35.5194 27.9844 34.7313C28.5643 33.9433 29.6544 33.7761 30.4199 34.3731C31.6725 35.3522 33.041 36.2597 34.4327 37.0955C35.2678 37.597 35.5461 38.6955 35.059 39.5552C34.7343 40.1284 34.1544 40.4388 33.5513 40.4388Z"/>
</mask>
<path d="M52.9196 50.5881L45.9842 30.6239C45.4971 29.3104 44.4069 28.4985 43.1543 28.4985C41.9017 28.4985 40.8347 29.3104 40.3012 30.6716L33.3889 50.5881C33.0642 51.5194 33.5281 52.5463 34.4327 52.8806C35.3374 53.2149 36.3348 52.7373 36.6595 51.806L38.0976 47.6746H48.1877L49.6259 51.806C49.881 52.5463 50.5537 53 51.2728 53C51.4583 53 51.6671 52.9761 51.8526 52.9045C52.7573 52.5701 53.2212 51.5433 52.8965 50.6119L52.9196 50.5881ZM39.3734 44.0687L43.1775 33.1075L46.9816 44.0687H39.3734ZM33.4585 23.0776C28.2163 31.603 23.4844 36.7612 17.7319 40.2C17.4536 40.3672 17.152 40.4388 16.8737 40.4388C16.2706 40.4388 15.6907 40.1284 15.366 39.5552C14.8788 38.6955 15.1572 37.597 15.9922 37.1194C20.8633 34.206 24.853 30.0269 29.3297 23.1015H14.7397C13.7887 23.1015 13 22.2896 13 21.3104C13 20.3313 13.7887 19.5194 14.7397 19.5194H23.438V14.791C23.438 13.8119 24.2267 13 25.1777 13C26.1287 13 26.9174 13.8119 26.9174 14.791V19.5194H35.6157C36.5667 19.5194 37.3554 20.3313 37.3554 21.3104C37.3554 22.2896 36.5667 23.1015 35.6157 23.1015H33.4353L33.4585 23.0776ZM33.5513 40.4388C33.2498 40.4388 32.9482 40.3672 32.6699 40.2C31.1622 39.2925 29.7008 38.2896 28.3323 37.2388C27.5668 36.6418 27.4045 35.5194 27.9844 34.7313C28.5643 33.9433 29.6544 33.7761 30.4199 34.3731C31.6725 35.3522 33.041 36.2597 34.4327 37.0955C35.2678 37.597 35.5461 38.6955 35.059 39.5552C34.7343 40.1284 34.1544 40.4388 33.5513 40.4388Z" fill="white"/>
<path d="M52.9196 50.5881L76.8303 73.8129L91.1528 59.0674L84.4071 39.6494L52.9196 50.5881ZM45.9842 30.6239L77.4716 19.6853L77.3579 19.358L77.2374 19.0331L45.9842 30.6239ZM40.3012 30.6716L9.26645 18.508L9.02633 19.1207L8.81058 19.7423L40.3012 30.6716ZM33.3889 50.5881L64.8638 61.5627L64.8717 61.54L64.8796 61.5174L33.3889 50.5881ZM36.6595 51.806L68.1344 62.7806L68.1372 62.7725L68.1401 62.7644L36.6595 51.806ZM38.0976 47.6746V14.3413H14.4059L6.61712 36.7162L38.0976 47.6746ZM48.1877 47.6746L79.6683 36.7162L71.8795 14.3413H48.1877V47.6746ZM49.6259 51.806L81.1399 40.9443L81.1232 40.8959L81.1064 40.8476L49.6259 51.806ZM51.8526 52.9045L40.2974 21.6381L40.0717 21.7215L39.8472 21.8082L51.8526 52.9045ZM52.8965 50.6119L28.9858 27.3871L14.645 42.1514L21.4216 61.5865L52.8965 50.6119ZM39.3734 44.0687L7.8826 33.1398L-7.47858 77.402H39.3734V44.0687ZM43.1775 33.1075L74.6683 22.1786L43.1775 -68.56L11.6867 22.1786L43.1775 33.1075ZM46.9816 44.0687V77.402H93.8336L78.4724 33.1398L46.9816 44.0687ZM33.4585 23.0776L61.8533 40.5375L9.54677 -0.146055L33.4585 23.0776ZM17.7319 40.2L0.628517 11.5891L0.599385 11.6065L0.570288 11.624L17.7319 40.2ZM15.366 39.5552L-13.6356 55.9875L-13.6356 55.9875L15.366 39.5552ZM15.9922 37.1194L32.5418 66.0542L32.8237 65.893L33.1023 65.7263L15.9922 37.1194ZM29.3297 23.1015L57.3234 41.1974L90.5687 -10.2318H29.3297V23.1015ZM23.438 19.5194V52.8527H56.7714V19.5194H23.438ZM26.9174 19.5194H-6.41597V52.8527H26.9174V19.5194ZM33.4353 23.1015L9.52357 -0.122174L-45.4059 56.4348H33.4353V23.1015ZM32.6699 40.2L15.4806 68.7594L15.4944 68.7677L15.5083 68.776L32.6699 40.2ZM28.3323 37.2388L7.83207 63.5229L7.93215 63.6009L8.03281 63.6782L28.3323 37.2388ZM30.4199 34.3731L50.9484 8.11114L50.9343 8.10009L50.9201 8.08906L30.4199 34.3731ZM34.4327 37.0955L17.2711 65.6716L34.4327 37.0955ZM35.059 39.5552L64.0606 55.9875V55.9875L35.059 39.5552ZM84.4071 39.6494L77.4716 19.6853L14.4967 41.5625L21.4322 61.5267L84.4071 39.6494ZM77.2374 19.0331C72.5832 6.48363 60.2046 -4.83483 43.1543 -4.83483V61.8318C28.6091 61.8318 18.4109 52.1373 14.7309 42.2146L77.2374 19.0331ZM43.1543 -4.83483C25.4881 -4.83483 13.7415 7.09014 9.26645 18.508L71.336 42.8352C67.9279 51.5308 58.3154 61.8318 43.1543 61.8318V-4.83483ZM8.81058 19.7423L1.89829 39.6588L64.8796 61.5174L71.7919 41.6009L8.81058 19.7423ZM1.91404 39.6135C-4.09736 56.854 4.10146 77.2078 22.8775 84.147L45.988 21.6142C62.9548 27.8847 70.2258 46.1848 64.8638 61.5627L1.91404 39.6135ZM22.8775 84.147C41.753 91.1229 61.8377 80.8394 68.1344 62.7806L5.18462 40.8314C10.8319 24.6352 28.9217 15.3069 45.988 21.6142L22.8775 84.147ZM68.1401 62.7644L69.5782 58.633L6.61712 36.7162L5.17899 40.8475L68.1401 62.7644ZM38.0976 81.008H48.1877V14.3413H38.0976V81.008ZM16.7072 58.633L18.1453 62.7644L81.1064 40.8476L79.6683 36.7162L16.7072 58.633ZM18.1118 62.6676C23.0333 76.9469 36.4282 86.3333 51.2728 86.3333V19.6667C64.6792 19.6667 76.7287 28.1456 81.1399 40.9443L18.1118 62.6676ZM51.2728 86.3333C53.8891 86.3333 58.5413 86.0535 63.8581 84.0008L39.8472 21.8082C44.7929 19.8988 49.0276 19.6667 51.2728 19.6667V86.3333ZM63.4079 84.1709C82.1839 77.2317 90.3828 56.878 84.3714 39.6373L21.4216 61.5865C16.0596 46.2086 23.3307 27.9086 40.2974 21.6381L63.4079 84.1709ZM76.8071 73.8367L76.8303 73.8129L29.009 27.3633L28.9858 27.3871L76.8071 73.8367ZM70.8642 54.9975L74.6683 44.0363L11.6867 22.1786L7.8826 33.1398L70.8642 54.9975ZM11.6867 44.0363L15.4908 54.9975L78.4724 33.1398L74.6683 22.1786L11.6867 44.0363ZM46.9816 10.7353H39.3734V77.402H46.9816V10.7353ZM5.06375 5.61773C3.17317 8.69235 1.92719 10.2462 1.23378 11.0014C0.910362 11.3536 0.72573 11.5111 0.672556 11.555C0.656744 11.568 0.646048 11.5763 0.640135 11.5809C0.634243 11.5854 0.631433 11.5873 0.631245 11.5875C0.631063 11.5876 0.631642 11.5872 0.632376 11.5867C0.633101 11.5863 0.632069 11.5869 0.628517 11.5891L34.8353 68.8109C46.9215 61.5859 55.0873 51.541 61.8533 40.5375L5.06375 5.61773ZM0.570288 11.624C5.8203 8.47102 11.5216 7.10547 16.8737 7.10547V73.7721C22.7825 73.7721 29.0868 72.2633 34.8935 68.776L0.570288 11.624ZM16.8737 7.10547C27.8563 7.10547 38.57 12.8908 44.3675 23.1229L-13.6356 55.9875C-7.18859 67.3659 4.68483 73.7721 16.8737 73.7721V7.10547ZM44.3675 23.1229C52.3902 37.2822 48.575 56.8838 32.5418 66.0542L-0.557355 8.18461C-18.2606 18.3102 -22.6325 40.1088 -13.6356 55.9875L44.3675 23.1229ZM33.1023 65.7263C43.8519 59.2969 51.2034 50.6648 57.3234 41.1974L1.33598 5.00557C-0.146239 7.29852 -1.00637 8.28749 -1.33131 8.62874C-1.53791 8.84572 -1.41326 8.68916 -1.11788 8.5125L33.1023 65.7263ZM29.3297 -10.2318H14.7397V56.4348H29.3297V-10.2318ZM14.7397 -10.2318C33.106 -10.2318 46.3333 4.80118 46.3333 21.3104H-20.3333C-20.3333 39.7779 -5.52865 56.4348 14.7397 56.4348V-10.2318ZM46.3333 21.3104C46.3333 37.8197 33.106 52.8527 14.7397 52.8527V-13.8139C-5.52865 -13.8139 -20.3333 2.84297 -20.3333 21.3104H46.3333ZM14.7397 52.8527H23.438V-13.8139H14.7397V52.8527ZM56.7714 19.5194V14.791H-9.89531V19.5194H56.7714ZM56.7714 14.791C56.7714 31.3003 43.544 46.3333 25.1777 46.3333V-20.3333C4.90937 -20.3333 -9.89531 -3.67643 -9.89531 14.791H56.7714ZM25.1777 46.3333C6.81167 46.3333 -6.41597 31.3006 -6.41597 14.791H60.2507C60.2507 -3.67673 45.4457 -20.3333 25.1777 -20.3333V46.3333ZM-6.41597 14.791V19.5194H60.2507V14.791H-6.41597ZM26.9174 52.8527H35.6157V-13.8139H26.9174V52.8527ZM35.6157 52.8527C17.2494 52.8527 4.02206 37.8197 4.02206 21.3104H70.6887C70.6887 2.84297 55.884 -13.8139 35.6157 -13.8139V52.8527ZM4.02206 21.3104C4.02206 4.80118 17.2494 -10.2318 35.6157 -10.2318V56.4348C55.884 56.4348 70.6887 39.7779 70.6887 21.3104H4.02206ZM35.6157 -10.2318H33.4353V56.4348H35.6157V-10.2318ZM57.3471 46.3252L57.3703 46.3013L9.54677 -0.146055L9.52357 -0.122174L57.3471 46.3252ZM33.5513 7.10547C38.6448 7.10547 44.3955 8.35935 49.8315 11.624L15.5083 68.776C21.5009 72.375 27.8547 73.7721 33.5513 73.7721V7.10547ZM49.8592 11.6406C49.4781 11.4113 49.0525 11.1225 48.6317 10.7994L8.03281 63.6782C10.3491 65.4566 12.8462 67.1738 15.4806 68.7594L49.8592 11.6406ZM48.8325 10.9547C62.1671 21.355 65.0449 40.6085 54.8323 54.4873L1.1364 14.9754C-10.236 30.4303 -7.03343 51.9286 7.83207 63.5229L48.8325 10.9547ZM54.8323 54.4873C44.699 68.2583 24.5045 72.0326 9.9197 60.6572L50.9201 8.08906C34.8044 -4.48036 12.4295 -0.371733 1.1364 14.9754L54.8323 54.4873ZM9.89141 60.6351C12.5024 62.6761 15.0678 64.3483 17.2711 65.6716L51.5944 8.51948C51.3236 8.35689 51.1342 8.23461 51.0141 8.15363C50.8923 8.07145 50.8777 8.0559 50.9484 8.11114L9.89141 60.6351ZM17.2711 65.6716C2.16782 56.6011 -2.11447 37.5457 6.05747 23.1229L64.0606 55.9875C73.2067 39.8454 68.3678 18.5929 51.5944 8.51948L17.2711 65.6716ZM6.05747 23.1229C11.855 12.8908 22.5687 7.10547 33.5513 7.10547V73.7721C45.7401 73.7721 57.6136 67.366 64.0606 55.9875L6.05747 23.1229Z" fill="white" mask="url(#path-2-inside-1_274_97)"/>
</svg>
