<svg width="30" height="30" viewBox="0 0 30 30" fill="none" xmlns="http://www.w3.org/2000/svg">
<circle cx="15" cy="15" r="14" fill="#161616" stroke="white" stroke-width="2"/>
<mask id="path-2-inside-1_274_97" fill="white">
<path d="M24.9598 23.794L21.4921 13.8119C21.2485 13.1552 20.7034 12.7493 20.0771 12.7493C19.4509 12.7493 18.9174 13.1552 18.6506 13.8358L15.1945 23.794C15.0321 24.2597 15.2641 24.7731 15.7164 24.9403C16.1687 25.1075 16.6674 24.8687 16.8298 24.403L17.5488 22.3373H22.5939L23.3129 24.403C23.4405 24.7731 23.7768 25 24.1364 25C24.2292 25 24.3335 24.9881 24.4263 24.9522C24.8786 24.7851 25.1106 24.2716 24.9482 23.806L24.9598 23.794ZM18.1867 20.5343L20.0887 15.0537L21.9908 20.5343H18.1867ZM15.2293 10.0388C12.6081 14.3015 10.2422 16.8806 7.36595 18.6C7.22678 18.6836 7.07601 18.7194 6.93683 18.7194C6.63529 18.7194 6.34535 18.5642 6.18298 18.2776C5.93942 17.8478 6.0786 17.2985 6.49612 17.0597C8.93164 15.603 10.9265 13.5134 13.1649 10.0507H5.86984C5.39433 10.0507 5 9.64478 5 9.15522C5 8.66567 5.39433 8.2597 5.86984 8.2597H10.219V5.89552C10.219 5.40597 10.6133 5 11.0888 5C11.5643 5 11.9587 5.40597 11.9587 5.89552V8.2597H16.3079C16.7834 8.2597 17.1777 8.66567 17.1777 9.15522C17.1777 9.64478 16.7834 10.0507 16.3079 10.0507H15.2177L15.2293 10.0388ZM15.2757 18.7194C15.1249 18.7194 14.9741 18.6836 14.8349 18.6C14.0811 18.1463 13.3504 17.6448 12.6661 17.1194C12.2834 16.8209 12.2022 16.2597 12.4922 15.8657C12.7821 15.4716 13.3272 15.3881 13.71 15.6866C14.3362 16.1761 15.0205 16.6299 15.7164 17.0478C16.1339 17.2985 16.2731 17.8478 16.0295 18.2776C15.8671 18.5642 15.5772 18.7194 15.2757 18.7194Z"/>
</mask>
<path d="M24.9598 23.794L21.4921 13.8119C21.2485 13.1552 20.7034 12.7493 20.0771 12.7493C19.4509 12.7493 18.9174 13.1552 18.6506 13.8358L15.1945 23.794C15.0321 24.2597 15.2641 24.7731 15.7164 24.9403C16.1687 25.1075 16.6674 24.8687 16.8298 24.403L17.5488 22.3373H22.5939L23.3129 24.403C23.4405 24.7731 23.7768 25 24.1364 25C24.2292 25 24.3335 24.9881 24.4263 24.9522C24.8786 24.7851 25.1106 24.2716 24.9482 23.806L24.9598 23.794ZM18.1867 20.5343L20.0887 15.0537L21.9908 20.5343H18.1867ZM15.2293 10.0388C12.6081 14.3015 10.2422 16.8806 7.36595 18.6C7.22678 18.6836 7.07601 18.7194 6.93683 18.7194C6.63529 18.7194 6.34535 18.5642 6.18298 18.2776C5.93942 17.8478 6.0786 17.2985 6.49612 17.0597C8.93164 15.603 10.9265 13.5134 13.1649 10.0507H5.86984C5.39433 10.0507 5 9.64478 5 9.15522C5 8.66567 5.39433 8.2597 5.86984 8.2597H10.219V5.89552C10.219 5.40597 10.6133 5 11.0888 5C11.5643 5 11.9587 5.40597 11.9587 5.89552V8.2597H16.3079C16.7834 8.2597 17.1777 8.66567 17.1777 9.15522C17.1777 9.64478 16.7834 10.0507 16.3079 10.0507H15.2177L15.2293 10.0388ZM15.2757 18.7194C15.1249 18.7194 14.9741 18.6836 14.8349 18.6C14.0811 18.1463 13.3504 17.6448 12.6661 17.1194C12.2834 16.8209 12.2022 16.2597 12.4922 15.8657C12.7821 15.4716 13.3272 15.3881 13.71 15.6866C14.3362 16.1761 15.0205 16.6299 15.7164 17.0478C16.1339 17.2985 16.2731 17.8478 16.0295 18.2776C15.8671 18.5642 15.5772 18.7194 15.2757 18.7194Z" fill="white"/>
<path d="M24.9598 23.794L48.8705 47.0188L63.193 32.2734L56.4472 12.8554L24.9598 23.794ZM21.4921 13.8119L52.9795 2.87332L52.8658 2.54603L52.7453 2.22117L21.4921 13.8119ZM18.6506 13.8358L-12.3842 1.67221L-12.6243 2.28487L-12.84 2.90652L18.6506 13.8358ZM15.1945 23.794L46.6694 34.7686L46.6773 34.746L46.6851 34.7233L15.1945 23.794ZM16.8298 24.403L48.3047 35.3776L48.3075 35.3695L48.3103 35.3614L16.8298 24.403ZM17.5488 22.3373V-10.996H-6.14297L-13.9317 11.3789L17.5488 22.3373ZM22.5939 22.3373L54.0744 11.3789L46.2857 -10.996H22.5939V22.3373ZM23.3129 24.403L54.827 13.5413L54.8103 13.4929L54.7935 13.4446L23.3129 24.403ZM24.4263 24.9522L12.871 -6.31414L12.6453 -6.23073L12.4208 -6.14406L24.4263 24.9522ZM24.9482 23.806L1.03757 0.581162L-13.3033 15.3455L-6.52667 34.7806L24.9482 23.806ZM18.1867 20.5343L-13.3041 9.60545L-28.6653 53.8677L18.1867 53.8677V20.5343ZM20.0887 15.0537L51.5795 4.12484L20.0887 -86.6137L-11.4021 4.12486L20.0887 15.0537ZM21.9908 20.5343V53.8677H68.8428L53.4816 9.60544L21.9908 20.5343ZM15.2293 10.0388L43.624 27.4987L-8.6825 -13.1849L15.2293 10.0388ZM7.36595 18.6L-9.73744 -10.0109L-9.76657 -9.99351L-9.79566 -9.97604L7.36595 18.6ZM6.18298 18.2776L-22.8186 34.7099L-22.8186 34.7099L6.18298 18.2776ZM6.49612 17.0597L23.0457 45.9945L23.3276 45.8333L23.6062 45.6666L6.49612 17.0597ZM13.1649 10.0507L41.1586 28.1467L74.4039 -23.2826L13.1649 -23.2826V10.0507ZM10.219 8.2597V41.593H43.5523V8.2597H10.219ZM11.9587 8.2597H-21.3746V41.593H11.9587V8.2597ZM15.2177 10.0507L-8.69409 -13.1729L-63.6236 43.3841H15.2177V10.0507ZM14.8349 18.6L-2.35437 47.1594L-2.34053 47.1677L-2.32668 47.176L14.8349 18.6ZM12.6661 17.1194L-7.83406 43.4035L-7.73399 43.4815L-7.63333 43.5588L12.6661 17.1194ZM13.71 15.6866L34.2384 -10.5754L34.2243 -10.5865L34.2102 -10.5975L13.71 15.6866ZM15.7164 17.0478L-1.44524 45.6238L15.7164 17.0478ZM16.0295 18.2776L45.0311 34.7099L45.0311 34.7099L16.0295 18.2776ZM56.4472 12.8554L52.9795 2.87332L-9.99534 24.7506L-6.5276 34.7326L56.4472 12.8554ZM52.7453 2.22117C48.3347 -9.67159 36.5012 -20.5841 20.0771 -20.5841V46.0826C4.90568 46.0826 -5.83765 35.982 -9.76116 25.4027L52.7453 2.22117ZM20.0771 -20.5841C3.03721 -20.5841 -8.17584 -9.06509 -12.3842 1.67221L49.6854 25.9994C46.0106 35.3755 35.8645 46.0826 20.0771 46.0826V-20.5841ZM-12.84 2.90652L-16.2962 12.8647L46.6851 34.7233L50.1413 24.7651L-12.84 2.90652ZM-16.2804 12.8194C-22.1295 29.5943 -14.1626 49.4347 4.16109 56.2067L27.2717 -6.32608C44.6907 0.111571 52.1937 18.9251 46.6694 34.7686L-16.2804 12.8194ZM4.16109 56.2067C22.5844 63.0155 42.1703 52.9708 48.3047 35.3776L-14.6451 13.4284C-8.83552 -3.23347 9.75302 -12.8005 27.2717 -6.32608L4.16109 56.2067ZM48.3103 35.3614L49.0294 33.2957L-13.9317 11.3789L-14.6508 13.4446L48.3103 35.3614ZM17.5488 55.6706H22.5939V-10.996H17.5488V55.6706ZM-8.88667 33.2957L-8.1676 35.3614L54.7935 13.4446L54.0744 11.3789L-8.88667 33.2957ZM-8.20112 35.2646C-3.40719 49.1738 9.65139 58.3333 24.1364 58.3333V-8.33333C37.9023 -8.33333 50.2882 0.372514 54.827 13.5413L-8.20112 35.2646ZM24.1364 58.3333C26.6599 58.3333 31.2077 58.0654 36.4318 56.0485L12.4208 -6.14406C17.4593 -8.08929 21.7984 -8.33333 24.1364 -8.33333V58.3333ZM35.9816 56.2186C54.3052 49.4467 62.2722 29.6064 56.4231 12.8314L-6.52667 34.7806C-12.051 18.9369 -4.54795 0.123486 12.871 -6.31414L35.9816 56.2186ZM48.8589 47.0308L48.8705 47.0188L1.04917 0.569224L1.03757 0.581162L48.8589 47.0308ZM49.6775 31.4632L51.5795 25.9826L-11.4021 4.12486L-13.3041 9.60545L49.6775 31.4632ZM-11.4021 25.9826L-9.50001 31.4632L53.4816 9.60544L51.5795 4.12484L-11.4021 25.9826ZM21.9908 -12.799H18.1867V53.8677H21.9908V-12.799ZM-13.1655 -7.42108C-13.7455 -6.4778 -13.7448 -6.63437 -13.1595 -7.27174C-12.4517 -8.04263 -11.2943 -9.08023 -9.73744 -10.0109L24.4693 47.2109C33.6793 41.7053 39.4791 34.2395 43.624 27.4987L-13.1655 -7.42108ZM-9.79566 -9.97604C-4.40648 -13.2126 1.44557 -14.6139 6.93683 -14.6139V52.0527C12.7064 52.0527 18.86 50.5797 24.5276 47.176L-9.79566 -9.97604ZM6.93683 -14.6139C18.221 -14.6139 29.2246 -8.6734 35.1845 1.8453L-22.8186 34.7099C-16.5339 45.8018 -4.95046 52.0527 6.93683 52.0527V-14.6139ZM35.1845 1.8453C43.4508 16.4345 39.4964 36.5853 23.0457 45.9945L-10.0535 -11.8751C-27.3392 -1.9883 -31.5719 19.2611 -22.8186 34.7099L35.1845 1.8453ZM23.6062 45.6666C31.9203 40.6939 37.277 34.1514 41.1586 28.1467L-14.8289 -8.04517C-15.1919 -7.48357 -14.9937 -7.88266 -14.2357 -8.67872C-13.3594 -9.59906 -12.1271 -10.6422 -10.614 -11.5472L23.6062 45.6666ZM13.1649 -23.2826H5.86984V43.3841H13.1649V-23.2826ZM5.86984 -23.2826C24.7116 -23.2826 38.3333 -7.8436 38.3333 9.15522H-28.3333C-28.3333 27.1331 -13.923 43.3841 5.86984 43.3841V-23.2826ZM38.3333 9.15522C38.3333 26.154 24.7116 41.593 5.86984 41.593V-25.0736C-13.923 -25.0736 -28.3333 -8.8227 -28.3333 9.15522H38.3333ZM5.86984 41.593H10.219V-25.0736H5.86984V41.593ZM43.5523 8.2597V5.89552H-23.1143V8.2597H43.5523ZM43.5523 5.89552C43.5523 22.8943 29.9306 38.3333 11.0888 38.3333V-28.3333C-8.70397 -28.3333 -23.1143 -12.0824 -23.1143 5.89552H43.5523ZM11.0888 38.3333C-7.75267 38.3333 -21.3746 22.8946 -21.3746 5.89552H45.292C45.292 -12.0827 30.8814 -28.3333 11.0888 -28.3333V38.3333ZM-21.3746 5.89552V8.2597H45.292V5.89552H-21.3746ZM11.9587 41.593H16.3079V-25.0736H11.9587V41.593ZM16.3079 41.593C-2.53393 41.593 -16.1556 26.154 -16.1556 9.15522H50.511C50.511 -8.8227 36.1007 -25.0736 16.3079 -25.0736V41.593ZM-16.1556 9.15522C-16.1556 -7.8436 -2.53393 -23.2826 16.3079 -23.2826V43.3841C36.1007 43.3841 50.511 27.1331 50.511 9.15522H-16.1556ZM16.3079 -23.2826H15.2177V43.3841H16.3079V-23.2826ZM39.1294 33.2744L39.141 33.2625L-8.6825 -13.1849L-8.69409 -13.1729L39.1294 33.2744ZM15.2757 -14.6139C20.52 -14.6139 26.4214 -13.3242 31.9966 -9.97604L-2.32668 47.176C3.52679 50.6914 9.72981 52.0527 15.2757 52.0527V-14.6139ZM32.0243 -9.95939C32.397 -9.73501 32.7021 -9.52231 32.9656 -9.32002L-7.63333 43.5588C-6.00127 44.8119 -4.23488 46.0275 -2.35437 47.1594L32.0243 -9.95939ZM33.1663 -9.16468C46.8837 1.53411 49.8427 21.3488 39.3401 35.6216L-14.3558 -3.89029C-25.4382 11.1706 -22.3168 32.1077 -7.83406 43.4035L33.1663 -9.16468ZM39.3401 35.6216C28.9169 49.7867 8.17729 53.6445 -6.79025 41.9706L34.2102 -10.5975C18.4772 -22.8684 -3.35262 -18.8434 -14.3558 -3.89029L39.3401 35.6216ZM-6.81854 41.9486C-4.83384 43.5 -2.95271 44.7185 -1.44524 45.6238L32.878 -11.5283C32.9937 -11.4588 33.5063 -11.1477 34.2384 -10.5754L-6.81854 41.9486ZM-1.44524 45.6238C-16.9661 36.3026 -21.3875 16.6979 -12.972 1.8453L45.0311 34.7099C53.9337 18.9976 49.2339 -1.7056 32.878 -11.5283L-1.44524 45.6238ZM-12.972 1.8453C-7.01212 -8.67342 3.99147 -14.6139 15.2757 -14.6139V52.0527C27.1629 52.0527 38.7464 45.8018 45.0311 34.7099L-12.972 1.8453Z" fill="white" mask="url(#path-2-inside-1_274_97)"/>
</svg>
