<svg
              width="20"
              height="20"
              viewBox="0 0 20 20"
              fill="none"
              xmlns="http://www.w3.org/2000/svg"
            >
              <path
                d="M13.7216 13.6661L14.1888 13.1765L13.104 12.0266L12.637 12.5162L13.7216 13.6661ZM15.7575 12.9714L17.7168 14.0942L18.4515 12.6696L16.4922 11.5468L15.7575 12.9714ZM18.094 16.3257L16.6371 17.8527L17.7218 19.0027L19.1787 17.4757L18.094 16.3257ZM15.7494 18.3444C14.2624 18.4905 10.4153 18.3603 6.25004 13.9945L5.16536 15.1445C9.71074 19.9086 14.0369 20.1412 15.8921 19.959L15.7494 18.3444ZM6.25004 13.9945C2.27968 9.83311 1.62199 6.33302 1.54012 4.81456L0.00425482 4.90657C0.107283 6.8177 0.921656 10.6966 5.16536 15.1445L6.25004 13.9945ZM7.66052 7.31328L7.95466 7.00497L6.87002 5.85508L6.57587 6.16338L7.66052 7.31328ZM8.18879 3.07509L6.89561 1.25415L5.66411 2.22596L6.95729 4.04691L8.18879 3.07509ZM2.54615 0.857814L0.936424 2.54501L2.0211 3.69492L3.63083 2.00772L2.54615 0.857814ZM7.1182 6.73833C6.57587 6.16338 6.57514 6.16415 6.5744 6.16492C6.57415 6.16518 6.57341 6.16597 6.57291 6.1665C6.57191 6.16757 6.57088 6.16865 6.56984 6.16977C6.56776 6.172 6.56561 6.17433 6.56339 6.17675C6.55895 6.1816 6.55426 6.18686 6.54931 6.19252C6.53942 6.20384 6.52856 6.21679 6.51693 6.23142C6.49368 6.26066 6.46733 6.29667 6.43964 6.33975C6.38412 6.42612 6.32364 6.54031 6.27231 6.68392C6.16756 6.97694 6.11142 7.36321 6.18181 7.84153C6.31948 8.77695 6.93063 10.0126 8.49616 11.6534L9.5808 10.5035C8.11577 8.96793 7.76677 8.03346 7.70196 7.59293C7.67109 7.38328 7.70309 7.28009 7.71191 7.25566C7.71724 7.24055 7.7198 7.239 7.71324 7.24932C7.70996 7.25437 7.70452 7.26228 7.69601 7.27292C7.6918 7.27825 7.68678 7.28429 7.68093 7.29101C7.67796 7.29437 7.67488 7.29791 7.6714 7.30162C7.66975 7.30348 7.66801 7.30537 7.66617 7.30731C7.66524 7.30829 7.66432 7.30927 7.6634 7.31026C7.66299 7.31076 7.66227 7.31152 7.66196 7.31177C7.66124 7.31252 7.66052 7.31328 7.1182 6.73833ZM8.49616 11.6534C10.0622 13.2948 11.2399 13.9336 12.1287 14.0774C12.5829 14.1508 12.9492 14.0922 13.227 13.9831C13.3632 13.9296 13.4717 13.8666 13.5537 13.8086C13.5948 13.7796 13.629 13.7521 13.6568 13.7277C13.6708 13.7156 13.6831 13.7043 13.6938 13.6939C13.6993 13.6887 13.7043 13.6839 13.7089 13.6792C13.7113 13.6768 13.7134 13.6746 13.7156 13.6724C13.7166 13.6713 13.7176 13.6702 13.7187 13.6691C13.7192 13.6686 13.72 13.6679 13.7202 13.6676C13.7209 13.6669 13.7216 13.6661 13.1793 13.0911C12.637 12.5162 12.6377 12.5154 12.6384 12.5147C12.6386 12.5145 12.6393 12.5137 12.6399 12.5132C12.6408 12.5122 12.6417 12.5112 12.6426 12.5103C12.6446 12.5084 12.6463 12.5066 12.6481 12.5047C12.6517 12.5012 12.655 12.4979 12.6582 12.4948C12.6646 12.4887 12.6703 12.4834 12.6754 12.4791C12.6855 12.4703 12.693 12.4646 12.6976 12.4613C12.7071 12.4546 12.7052 12.4576 12.69 12.4635C12.6649 12.4734 12.5643 12.5072 12.362 12.4745C11.9382 12.406 11.0454 12.0385 9.5808 10.5035L8.49616 11.6534ZM6.89561 1.25415C5.85023 -0.217809 3.79461 -0.450723 2.54615 0.857814L3.63083 2.00772C4.17611 1.43619 5.14453 1.49436 5.66411 2.22596L6.89561 1.25415ZM1.54012 4.81456C1.51995 4.44039 1.68275 4.04955 2.0211 3.69492L0.936424 2.54501C0.385366 3.12259 -0.0478543 3.9402 0.00425482 4.90657L1.54012 4.81456ZM16.6371 17.8527C16.3553 18.1482 16.0532 18.3146 15.7494 18.3444L15.8921 19.959C16.6455 19.8849 17.2628 19.4837 17.7218 19.0027L16.6371 17.8527ZM7.95466 7.00497C8.96433 5.9467 9.0394 4.27279 8.18879 3.07509L6.95729 4.04691C7.37111 4.62958 7.30958 5.39437 6.87002 5.85508L7.95466 7.00497ZM17.7168 14.0942C18.5555 14.5749 18.6862 15.705 18.094 16.3257L19.1787 17.4757C20.5532 16.0349 20.1294 13.631 18.4515 12.6696L17.7168 14.0942ZM14.1888 13.1765C14.5826 12.7638 15.2165 12.6615 15.7575 12.9714L16.4922 11.5468C15.3809 10.91 14.0017 11.0858 13.104 12.0266L14.1888 13.1765Z"
                fill="white"
              />
            </svg>