<svg width="72" height="71" viewBox="0 0 72 71" fill="none" xmlns="http://www.w3.org/2000/svg">
<path d="M36 2.66675C29.4073 2.66675 22.9626 4.62171 17.481 8.28443C11.9993 11.9471 7.72691 17.1531 5.20399 23.244C2.68107 29.3348 2.02096 36.0371 3.30713 42.5031C4.59331 48.9691 7.768 54.9086 12.4297 59.5703C17.0915 64.2321 23.0309 67.4068 29.497 68.6929C35.963 69.9791 42.6652 69.319 48.7561 66.7961C54.847 64.2732 60.0529 60.0007 63.7156 54.5191C67.3783 49.0375 69.3333 42.5928 69.3333 36.0001C69.3333 31.6227 68.4711 27.2882 66.796 23.244C65.1208 19.1998 62.6655 15.5251 59.5702 12.4299C56.4749 9.33457 52.8003 6.87925 48.7561 5.2041C44.7119 3.52894 40.3774 2.66675 36 2.66675ZM40.2333 41.0001H32.6666V49.3334H27.6666V22.6667H40.2333C41.4335 22.6685 42.6215 22.9073 43.7291 23.3694C44.8367 23.8315 45.8422 24.5078 46.6877 25.3595C47.5332 26.2113 48.2022 27.2216 48.6562 28.3326C49.1102 29.4436 49.3403 30.6333 49.3333 31.8334C49.3018 34.2433 48.335 36.5466 46.6371 38.257C44.9391 39.9674 42.6429 40.951 40.2333 41.0001ZM44.3333 31.8334C44.3502 32.9212 43.9345 33.9711 43.1776 34.7524C42.4206 35.5338 41.3844 35.9825 40.2966 36.0001H32.6666V27.6667H40.2966C41.3844 27.6843 42.4206 28.1331 43.1776 28.9144C43.9345 29.6957 44.3502 30.7457 44.3333 31.8334Z" stroke="#333333" stroke-width="3.33333"/>
</svg>
