<svg width="74" height="73" viewBox="0 0 74 73" fill="none" xmlns="http://www.w3.org/2000/svg">
<path d="M37.0001 70.3334C55.4096 70.3334 70.3334 55.4096 70.3334 37.0001C70.3334 18.5906 55.4096 3.66675 37.0001 3.66675C18.5906 3.66675 3.66675 18.5906 3.66675 37.0001C3.66675 55.4096 18.5906 70.3334 37.0001 70.3334Z" stroke="#333333" stroke-width="5"/>
<path d="M37 70.3333H70.3333" stroke="#333333" stroke-width="5" stroke-linecap="round"/>
<path d="M37 27C42.523 27 47 31.477 47 37C47 42.523 42.523 47 37 47C31.477 47 27 42.523 27 37C27 31.477 31.477 27 37 27Z" stroke="#333333" stroke-width="5"/>
<path d="M61.9999 37.0001C61.9999 38.8411 60.5076 40.3334 58.6666 40.3334C56.8256 40.3334 55.3333 38.8411 55.3333 37.0001C55.3333 35.1591 56.8256 33.6667 58.6666 33.6667C60.5076 33.6667 61.9999 35.1591 61.9999 37.0001Z" fill="#333333" stroke="#333333" stroke-width="3.33333"/>
<path d="M18.6667 37.0001C18.6667 38.8411 17.1743 40.3334 15.3333 40.3334C13.4924 40.3334 12 38.8411 12 37.0001C12 35.1591 13.4924 33.6667 15.3333 33.6667C17.1743 33.6667 18.6667 35.1591 18.6667 37.0001Z" fill="#333333" stroke="#333333" stroke-width="3.33333"/>
<path d="M37.0001 12C38.8411 12 40.3334 13.4924 40.3334 15.3333C40.3334 17.1743 38.8411 18.6667 37.0001 18.6667C35.1591 18.6667 33.6667 17.1743 33.6667 15.3333C33.6667 13.4924 35.1591 12 37.0001 12Z" fill="#333333" stroke="#333333" stroke-width="3.33333"/>
<path d="M37.0001 55.3333C38.8411 55.3333 40.3334 56.8256 40.3334 58.6666C40.3334 60.5076 38.8411 61.9999 37.0001 61.9999C35.1591 61.9999 33.6667 60.5076 33.6667 58.6666C33.6667 56.8256 35.1591 55.3333 37.0001 55.3333Z" fill="#333333" stroke="#333333" stroke-width="3.33333"/>
</svg>
