<svg width="68" height="68" viewBox="0 0 68 68" fill="none" xmlns="http://www.w3.org/2000/svg">
<g clip-path="url(#clip0_479_60)">
<path d="M4 4H64M34 54L17.3333 64M34 54L50.6667 64M34 54V64M34 54V44M34 44H46.6667C50.4003 44 52.2673 44 53.6933 43.2733C54.9477 42.6343 55.9677 41.6143 56.6067 40.36C57.3333 38.934 57.3333 37.067 57.3333 33.3333V17.3333M34 44H21.3333C17.5997 44 15.7328 44 14.3067 43.2733C13.0523 42.6343 12.0324 41.6143 11.3933 40.36C10.6667 38.934 10.6667 37.067 10.6667 33.3333V17.3333" stroke="#333333" stroke-width="6.66667" stroke-linecap="round" stroke-linejoin="round"/>
</g>
<defs>
<clipPath id="clip0_479_60">
<rect width="68" height="68" fill="white"/>
</clipPath>
</defs>
</svg>
