<svg width="55" height="75" viewBox="0 0 55 75" fill="none" xmlns="http://www.w3.org/2000/svg">
<g clip-path="url(#clip0_479_41)">
<path d="M17.0048 46.6684V9.70173C16.9424 8.08263 17.4901 6.4991 18.5395 5.26453C19.5889 4.02995 21.0635 3.23431 22.6715 3.03507C23.5818 2.93621 24.5027 3.04703 25.3636 3.35903C26.2245 3.67103 27.0025 4.17593 27.6381 4.83506C28.2538 5.41085 28.7435 6.10799 29.0763 6.88251C29.409 7.65703 29.5776 8.49211 29.5715 9.33507V31.1351L45.9715 33.4684C47.4532 33.6764 48.8107 34.4105 49.796 35.5365C50.7813 36.6626 51.3287 38.1055 51.3381 39.6017C51.3387 48.3479 49.3075 56.9746 45.4048 64.8017L45.1048 65.3351V74.6684" stroke="#333333" stroke-width="6.23333" stroke-miterlimit="10"/>
<path d="M16.7667 75.4337V66.1003L7.96667 57.3003C6.81264 56.1441 5.89777 54.7718 5.27434 53.2619C4.65092 51.7519 4.33116 50.1339 4.33334 48.5003V33.9003C4.29593 32.3939 4.67434 30.9063 5.42702 29.6009C6.17971 28.2955 7.27755 27.2227 8.60001 26.5003C9.89314 25.8447 11.3445 25.5659 12.7885 25.6955C14.2325 25.8252 15.611 26.3582 16.7667 27.2337" stroke="#333333" stroke-width="6.23333" stroke-miterlimit="10"/>
</g>
<defs>
<clipPath id="clip0_479_41">
<rect width="55" height="75" fill="white"/>
</clipPath>
</defs>
</svg>
