<svg width="54" height="64" viewBox="0 0 54 64" fill="none" xmlns="http://www.w3.org/2000/svg">
<g clip-path="url(#clip0_479_49)">
<path d="M24.0183 3.49033L6.2958 12.3515C3.694 13.6525 2.39307 14.3029 2.39307 15.333C2.39307 16.363 3.694 17.0135 6.2958 18.3144L24.0183 27.1756C25.4813 27.907 26.2126 28.273 26.9996 28.273C27.7866 28.273 28.518 27.907 29.981 27.1756L47.7033 18.3144C50.3053 17.0135 51.6063 16.363 51.6063 15.333C51.6063 14.3029 50.3053 13.6525 47.7033 12.3515L29.981 3.49033C28.518 2.75883 27.7866 2.39307 26.9996 2.39307C26.2126 2.39307 25.4813 2.75883 24.0183 3.49033Z" stroke="#333333" stroke-width="3.33333"/>
<path fill-rule="evenodd" clip-rule="evenodd" d="M10.4064 26.9644C12.4193 28.045 14.7897 29.23 17.5177 30.594L21.0366 32.3537C23.9629 33.8167 25.4259 34.548 26.9996 34.548C28.5733 34.548 30.0363 33.8167 32.9626 32.3537L36.4816 30.594C39.2096 29.23 41.5799 28.045 43.5929 26.9644L47.7036 29.0197C50.3053 30.3204 51.6063 30.971 51.6063 32.001C51.6063 33.031 50.3053 33.6814 47.7036 34.9824L29.9809 43.8437C28.5179 44.575 27.7866 44.9407 26.9996 44.9407C26.2126 44.9407 25.4813 44.575 24.0183 43.8437L6.2958 34.9824C3.694 33.6814 2.39307 33.031 2.39307 32.001C2.39307 30.971 3.694 30.3204 6.2958 29.0197L10.4064 26.9644Z" stroke="#333333" stroke-width="3.33333"/>
<path fill-rule="evenodd" clip-rule="evenodd" d="M10.4048 43.6309C12.4181 44.7115 14.7891 45.8972 17.5177 47.2615L21.0369 49.0209C23.9629 50.4839 25.4259 51.2155 26.9996 51.2155C28.5736 51.2155 30.0366 50.4839 32.9626 49.0209L36.4816 47.2615C39.2103 45.8972 41.5813 44.7115 43.5946 43.6309L47.7036 45.6852C50.3053 46.9862 51.6063 47.6365 51.6063 48.6665C51.6063 49.6969 50.3053 50.3472 47.7036 51.6482L29.9809 60.5092C28.5179 61.2409 27.7866 61.6065 26.9996 61.6065C26.2126 61.6065 25.4813 61.2409 24.0183 60.5092L6.2958 51.6482C3.694 50.3472 2.39307 49.6969 2.39307 48.6665C2.39307 47.6365 3.694 46.9862 6.2958 45.6852L10.4048 43.6309Z" stroke="#333333" stroke-width="3.33333"/>
</g>
<defs>
<clipPath id="clip0_479_49">
<rect width="54" height="64" fill="white"/>
</clipPath>
</defs>
</svg>
