<svg width="74" height="74" viewBox="0 0 74 74" fill="none" xmlns="http://www.w3.org/2000/svg">
<g clip-path="url(#clip0_479_46)">
<path d="M70.3335 47.0002H63.6668V37.0002C63.6668 36.1161 63.3156 35.2683 62.6905 34.6431C62.0654 34.018 61.2175 33.6668 60.3335 33.6668H40.3335V27.0002H47.0002C47.8842 27.0002 48.7321 26.649 49.3572 26.0238C49.9823 25.3987 50.3335 24.5509 50.3335 23.6668V3.66683C50.3335 2.78277 49.9823 1.93493 49.3572 1.30981C48.7321 0.684685 47.8842 0.333496 47.0002 0.333496H27.0002C26.1161 0.333496 25.2683 0.684685 24.6431 1.30981C24.018 1.93493 23.6668 2.78277 23.6668 3.66683V23.6668C23.6668 24.5509 24.018 25.3987 24.6431 26.0238C25.2683 26.649 26.1161 27.0002 27.0002 27.0002H33.6668V33.6668H13.6668C12.7828 33.6668 11.9349 34.018 11.3098 34.6431C10.6847 35.2683 10.3335 36.1161 10.3335 37.0002V47.0002H3.66683C2.78277 47.0002 1.93493 47.3513 1.30981 47.9765C0.684685 48.6016 0.333496 49.4494 0.333496 50.3335V70.3335C0.333496 71.2175 0.684685 72.0654 1.30981 72.6905C1.93493 73.3156 2.78277 73.6668 3.66683 73.6668H23.6668C24.5509 73.6668 25.3987 73.3156 26.0238 72.6905C26.649 72.0654 27.0002 71.2175 27.0002 70.3335V50.3335C27.0002 49.4494 26.649 48.6016 26.0238 47.9765C25.3987 47.3513 24.5509 47.0002 23.6668 47.0002H17.0002V40.3335H57.0002V47.0002H50.3335C49.4494 47.0002 48.6016 47.3513 47.9765 47.9765C47.3513 48.6016 47.0002 49.4494 47.0002 50.3335V70.3335C47.0002 71.2175 47.3513 72.0654 47.9765 72.6905C48.6016 73.3156 49.4494 73.6668 50.3335 73.6668H70.3335C71.2175 73.6668 72.0654 73.3156 72.6905 72.6905C73.3156 72.0654 73.6668 71.2175 73.6668 70.3335V50.3335C73.6668 49.4494 73.3156 48.6016 72.6905 47.9765C72.0654 47.3513 71.2175 47.0002 70.3335 47.0002ZM20.3335 53.6668V67.0002H7.00016V53.6668H20.3335ZM30.3335 20.3335V7.00016H43.6668V20.3335H30.3335ZM67.0002 67.0002H53.6668V53.6668H67.0002V67.0002Z" fill="#333333"/>
</g>
<defs>
<clipPath id="clip0_479_46">
<rect width="74" height="74" fill="white"/>
</clipPath>
</defs>
</svg>
